<svg width="24" height="18" viewBox="0 0 24 18" fill="none" xmlns="http://www.w3.org/2000/svg">
<path d="M20.6749 2.09656C18.5978 0.426374 15.312 0.143828 15.1724 0.131828C14.9531 0.113283 14.7447 0.237647 14.6553 0.438374C14.6487 0.451465 14.5767 0.616192 14.4971 0.872556C15.8705 1.10383 17.5582 1.57074 19.0855 2.51874C19.3298 2.67037 19.4051 2.99219 19.2535 3.23765C19.1553 3.39692 18.984 3.48419 18.8095 3.48419C18.7156 3.48419 18.6207 3.4591 18.5345 3.40565C15.9098 1.77801 12.6305 1.69619 12 1.69619C11.3695 1.69619 8.08909 1.77801 5.46655 3.40565C5.22109 3.55837 4.90036 3.48201 4.74764 3.23765C4.59491 2.99219 4.67127 2.67146 4.91564 2.51874C6.44291 1.57183 8.12945 1.10383 9.504 0.872556C9.42327 0.615101 9.35127 0.451465 9.34582 0.438374C9.25527 0.237647 9.048 0.111101 8.82764 0.132919C8.68909 0.143828 5.40327 0.426374 3.29782 2.12056C2.19818 3.13619 0 9.07947 0 14.2176C0 14.3082 0.024 14.3976 0.0687272 14.4762C1.58618 17.1413 5.72509 17.8395 6.66873 17.87C6.67418 17.87 6.67964 17.87 6.68509 17.87C6.852 17.87 7.00909 17.7904 7.10727 17.6551L8.06182 16.3438C5.48836 15.6784 4.17382 14.5493 4.09745 14.4827C3.88145 14.2918 3.86073 13.9624 4.05164 13.7464C4.24255 13.5304 4.57091 13.5096 4.78691 13.6995C4.81855 13.7278 7.23927 15.782 12 15.782C16.7695 15.782 19.1902 13.7191 19.2142 13.6984C19.4302 13.5107 19.7596 13.5304 19.9495 13.7475C20.1393 13.9635 20.1185 14.2918 19.9036 14.4816C19.8273 14.5493 18.5127 15.6773 15.9393 16.3427L16.8938 17.654C16.992 17.7893 17.1491 17.8689 17.316 17.8689C17.3215 17.8689 17.3269 17.8689 17.3324 17.8689C18.276 17.8395 22.4149 17.1413 23.9324 14.4751C23.976 14.3966 24 14.3082 24 14.2176C24 9.07947 21.8018 3.13619 20.6749 2.09656ZM8.60836 12.1307C7.60036 12.1307 6.78218 11.1958 6.78218 10.0438C6.78218 8.89183 7.59927 7.95692 8.60836 7.95692C9.61745 7.95692 10.4345 8.89183 10.4345 10.0438C10.4345 11.1958 9.61745 12.1307 8.60836 12.1307ZM15.3916 12.1307C14.3836 12.1307 13.5655 11.1958 13.5655 10.0438C13.5655 8.89183 14.3825 7.95692 15.3916 7.95692C16.3996 7.95692 17.2178 8.89183 17.2178 10.0438C17.2178 11.1958 16.3996 12.1307 15.3916 12.1307Z" fill="#333333"/>
</svg>
